#N canvas 138 206 815 613 12;
#X msg 33 68 \; pd dsp 1;
#X obj 33 21 loadbang;
#X obj 310 120 metro 1000;
#X obj 311 491 dac~;
#X obj 297 364 noise~;
#X obj 297 389 *~ 0.2;
#X obj 377 389 *~ 0.2;
#X obj 377 364 osc~ 440;
#X obj 297 414 *~;
#X obj 377 414 *~;
#X msg 315 92 1;
#X obj 310 260 % 2;
#X obj 395 315 expr 1 - $f1;
#X obj 310 149 f;
#X obj 370 170 + 1;
#X connect 1 0 0 0;
#X connect 1 0 10 0;
#X connect 2 0 13 0;
#X connect 4 0 5 0;
#X connect 5 0 8 0;
#X connect 6 0 9 0;
#X connect 7 0 6 0;
#X connect 8 0 3 0;
#X connect 9 0 3 1;
#X connect 10 0 2 0;
#X connect 11 0 8 1;
#X connect 11 0 12 0;
#X connect 12 0 9 1;
#X connect 13 0 14 0;
#X connect 13 0 11 0;
#X connect 14 0 13 1;
